<svg id="visual" viewBox="0 0 2600 600" width="2600" height="600" xmlns="http://www.w3.org/2000/svg" xmlns:xlink="http://www.w3.org/1999/xlink" version="1.1"><path d="M0 170L61.8 178.2C123.7 186.3 247.3 202.7 371.2 199.5C495 196.3 619 173.7 742.8 174.8C866.7 176 990.3 201 1114.2 202.5C1238 204 1362 182 1485.8 175.8C1609.7 169.7 1733.3 179.3 1857.2 180.5C1981 181.7 2105 174.3 2228.8 167.8C2352.7 161.3 2476.3 155.7 2538.2 152.8L2600 150L2600 0L2538.2 0C2476.3 0 2352.7 0 2228.8 0C2105 0 1981 0 1857.2 0C1733.3 0 1609.7 0 1485.8 0C1362 0 1238 0 1114.2 0C990.3 0 866.7 0 742.8 0C619 0 495 0 371.2 0C247.3 0 123.7 0 61.8 0L0 0Z" fill="#fa7268"></path><path d="M0 171L61.8 170C123.7 169 247.3 167 371.2 166.8C495 166.7 619 168.3 742.8 168.2C866.7 168 990.3 166 1114.2 162.3C1238 158.7 1362 153.3 1485.8 152.5C1609.7 151.7 1733.3 155.3 1857.2 153.2C1981 151 2105 143 2228.8 142C2352.7 141 2476.3 147 2538.2 150L2600 153L2600 0L2538.2 0C2476.3 0 2352.7 0 2228.8 0C2105 0 1981 0 1857.2 0C1733.3 0 1609.7 0 1485.8 0C1362 0 1238 0 1114.2 0C990.3 0 866.7 0 742.8 0C619 0 495 0 371.2 0C247.3 0 123.7 0 61.8 0L0 0Z" fill="#ef5f67"></path><path d="M0 101L61.8 103.3C123.7 105.7 247.3 110.3 371.2 115.3C495 120.3 619 125.7 742.8 126.5C866.7 127.3 990.3 123.7 1114.2 120.8C1238 118 1362 116 1485.8 112.2C1609.7 108.3 1733.3 102.7 1857.2 100C1981 97.3 2105 97.7 2228.8 96.5C2352.7 95.3 2476.3 92.7 2538.2 91.3L2600 90L2600 0L2538.2 0C2476.3 0 2352.7 0 2228.8 0C2105 0 1981 0 1857.2 0C1733.3 0 1609.7 0 1485.8 0C1362 0 1238 0 1114.2 0C990.3 0 866.7 0 742.8 0C619 0 495 0 371.2 0C247.3 0 123.7 0 61.8 0L0 0Z" fill="#e34c67"></path><path d="M0 66L61.8 69.5C123.7 73 247.3 80 371.2 79C495 78 619 69 742.8 72C866.7 75 990.3 90 1114.2 98.7C1238 107.3 1362 109.7 1485.8 108.3C1609.7 107 1733.3 102 1857.2 96.2C1981 90.3 2105 83.7 2228.8 86.3C2352.7 89 2476.3 101 2538.2 107L2600 113L2600 0L2538.2 0C2476.3 0 2352.7 0 2228.8 0C2105 0 1981 0 1857.2 0C1733.3 0 1609.7 0 1485.8 0C1362 0 1238 0 1114.2 0C990.3 0 866.7 0 742.8 0C619 0 495 0 371.2 0C247.3 0 123.7 0 61.8 0L0 0Z" fill="#d53867"></path><path d="M0 48L61.8 47.3C123.7 46.7 247.3 45.3 371.2 42.7C495 40 619 36 742.8 40C866.7 44 990.3 56 1114.2 61.8C1238 67.7 1362 67.3 1485.8 65.3C1609.7 63.3 1733.3 59.7 1857.2 54.2C1981 48.7 2105 41.3 2228.8 43.7C2352.7 46 2476.3 58 2538.2 64L2600 70L2600 0L2538.2 0C2476.3 0 2352.7 0 2228.8 0C2105 0 1981 0 1857.2 0C1733.3 0 1609.7 0 1485.8 0C1362 0 1238 0 1114.2 0C990.3 0 866.7 0 742.8 0C619 0 495 0 371.2 0C247.3 0 123.7 0 61.8 0L0 0Z" fill="#c62368"></path></svg>